<svg xmlns="http://www.w3.org/2000/svg" viewBox="0 0 64 64" role="img" aria-label="Book Rental">
  <defs>
    <linearGradient id="g" x1="0" y1="0" x2="1" y2="1">
      <stop offset="0%" stop-color="#2563eb"/>
      <stop offset="100%" stop-color="#10b981"/>
    </linearGradient>
  </defs>
  <rect x="4" y="4" width="56" height="56" rx="12" fill="url(#g)"/>
  <g fill="#fff">
    <path d="M20 18h16a6 6 0 0 1 6 6v22a2 2 0 0 1-2 2H22a6 6 0 0 1-6-6V24a6 6 0 0 1 6-6zm0 6a2 2 0 0 0-2 2v18a2 2 0 0 0 2 2h18V24a2 2 0 0 0-2-2H20z"/>
    <path d="M34 22h10a4 4 0 0 1 4 4v20a2 2 0 0 1-2 2H34V22z" opacity=".9"/>
  </g>
</svg>


